<mxfile host="65bd71144e">
    <diagram id="A2aZw5GfToj_nZ2YWZjR" name="HomePage">
        <mxGraphModel dx="878" dy="900" grid="1" gridSize="10" guides="1" tooltips="1" connect="1" arrows="1" fold="1" page="1" pageScale="1" pageWidth="850" pageHeight="1100" math="0" shadow="0">
            <root>
                <mxCell id="0"/>
                <mxCell id="1" parent="0"/>
                <mxCell id="2" value="" style="whiteSpace=wrap;html=1;aspect=fixed;" vertex="1" parent="1">
                    <mxGeometry x="70" y="50" width="730" height="730" as="geometry"/>
                </mxCell>
                <mxCell id="3" value="All Incidents" style="rounded=0;whiteSpace=wrap;html=1;" vertex="1" parent="1">
                    <mxGeometry x="90" y="70" width="690" height="50" as="geometry"/>
                </mxCell>
                <mxCell id="okfXel5hTDWEvo32VEYy-3" value="Incident 1 Text ..." style="rounded=0;whiteSpace=wrap;html=1;" vertex="1" parent="1">
                    <mxGeometry x="90" y="150" width="690" height="50" as="geometry"/>
                </mxCell>
                <mxCell id="okfXel5hTDWEvo32VEYy-4" value="Incident 2 Text ..." style="rounded=0;whiteSpace=wrap;html=1;" vertex="1" parent="1">
                    <mxGeometry x="90" y="200" width="690" height="50" as="geometry"/>
                </mxCell>
            </root>
        </mxGraphModel>
    </diagram>
    <diagram id="ryOwrCPTnAPMe0qGyZrX" name="Incident View">
        <mxGraphModel dx="878" dy="900" grid="1" gridSize="10" guides="1" tooltips="1" connect="1" arrows="1" fold="1" page="1" pageScale="1" pageWidth="850" pageHeight="1100" math="0" shadow="0">
            <root>
                <mxCell id="3hftbxdLm77nNwPrIWPK-0"/>
                <mxCell id="3hftbxdLm77nNwPrIWPK-1" parent="3hftbxdLm77nNwPrIWPK-0"/>
                <mxCell id="CpakHgGsSQAqr3roQoSJ-0" value="" style="whiteSpace=wrap;html=1;aspect=fixed;" vertex="1" parent="3hftbxdLm77nNwPrIWPK-1">
                    <mxGeometry x="70" y="50" width="730" height="730" as="geometry"/>
                </mxCell>
                <mxCell id="CpakHgGsSQAqr3roQoSJ-5" value="Tabbed View&lt;br&gt;&lt;br&gt;General Info / Events / Instituitions Involved / Active Users" style="rounded=0;whiteSpace=wrap;html=1;verticalAlign=top;" vertex="1" parent="3hftbxdLm77nNwPrIWPK-1">
                    <mxGeometry x="90" y="130" width="690" height="640" as="geometry"/>
                </mxCell>
                <mxCell id="CpakHgGsSQAqr3roQoSJ-1" value="Incident" style="rounded=0;whiteSpace=wrap;html=1;" vertex="1" parent="3hftbxdLm77nNwPrIWPK-1">
                    <mxGeometry x="90" y="70" width="690" height="50" as="geometry"/>
                </mxCell>
                <mxCell id="CpakHgGsSQAqr3roQoSJ-2" value="Scroller" style="rounded=0;whiteSpace=wrap;html=1;direction=west;horizontal=0;" vertex="1" parent="3hftbxdLm77nNwPrIWPK-1">
                    <mxGeometry x="720" y="320" width="50" height="440" as="geometry"/>
                </mxCell>
                <mxCell id="CpakHgGsSQAqr3roQoSJ-3" value="Opened Event Description / Info" style="rounded=0;whiteSpace=wrap;html=1;direction=west;horizontal=1;" vertex="1" parent="3hftbxdLm77nNwPrIWPK-1">
                    <mxGeometry x="100" y="320" width="610" height="440" as="geometry"/>
                </mxCell>
            </root>
        </mxGraphModel>
    </diagram>
</mxfile>